<svg width="59" height="15" viewBox="0 0 59 15" fill="none" xmlns="http://www.w3.org/2000/svg">
<path fill-rule="evenodd" clip-rule="evenodd" d="M49.6235 9.1566C49.6234 9.18326 49.6234 9.21003 49.6234 9.23691C49.651 12.8614 50.9675 14.2743 54.2921 14.2743C57.6793 14.2743 59 12.8308 59 9.11919C59 5.93267 57.7905 4.49876 54.2921 4.49876C53.4552 4.49876 52.7558 4.71069 52.175 5.04465C52.1962 4.93905 52.2185 4.84237 52.2419 4.75619C52.4538 3.97507 53.3765 3.21161 54.2868 2.92657C54.9101 2.73137 56.2761 2.66771 57.6451 2.66527C57.6954 2.66518 57.7408 2.63498 57.7602 2.58858L58.6285 0.510471C58.6629 0.428326 58.6025 0.337698 58.5135 0.337571C58.3003 0.337267 58.0989 0.336506 57.9069 0.33578C56.4036 0.330099 55.4776 0.3266 54 0.561743C53.3778 0.660748 52.2419 1.08449 51.394 1.83128C50.1946 3.07788 49.6328 3.994 49.6235 9.10688C49.6235 9.1111 49.6234 9.11521 49.6234 9.11919C49.6234 9.13168 49.6234 9.14415 49.6235 9.1566ZM52.2843 9.15546C52.2843 11.733 52.7612 12.1441 54.2921 12.1441C55.8524 12.1441 56.3391 11.733 56.3391 9.15546C56.3391 6.57789 55.4446 6.50707 54.2921 6.50707C53.1396 6.50707 52.2843 6.57789 52.2843 9.15546Z" />
<path fill-rule="evenodd" clip-rule="evenodd" d="M43.4193 3.72568C40.059 3.72568 38.7506 5.19346 38.7506 8.96137C38.7506 12.7866 40.059 14.2743 43.4193 14.2743C45.9683 14.2743 47.347 13.4318 47.8732 11.3846C47.8932 11.307 47.8339 11.2319 47.7538 11.2319H45.4023C45.352 11.2319 45.3071 11.2625 45.285 11.3077C44.9783 11.9377 44.3198 12.0789 43.4193 12.0789C42.0426 12.0789 41.5183 11.7363 41.4266 9.73565H47.9891C48.0554 9.73565 48.1101 9.68386 48.1131 9.61769C48.1225 9.40703 48.1272 9.18831 48.1272 8.96137C48.1272 5.19346 46.8065 3.72568 43.4193 3.72568ZM45.415 7.94014C45.2098 6.05223 44.4111 5.71913 43.4193 5.71913C42.4276 5.71913 41.6578 6.05223 41.4607 7.94014H45.415Z" />
<path fill-rule="evenodd" clip-rule="evenodd" d="M28.4763 4.12469C28.4763 4.10747 28.4798 4.09107 28.4861 4.07615C28.4948 4.05572 28.5087 4.03808 28.5262 4.02493C28.547 4.00928 28.5729 4 28.601 4H32.9651C32.9656 4 32.9661 4 32.9667 4.00001C32.9703 4 32.9739 4 32.9776 4C35.1881 4 36.9801 4.69825 36.9801 6.65586C36.9801 7.59014 36.444 8.2969 35.5967 8.74554C36.7461 9.1388 37.5037 9.91012 37.5037 11.207C37.5037 13.2775 36.3582 13.9391 33.6452 13.9959C33.6351 13.9986 33.6245 14 33.6135 14H28.601C28.5967 14 28.5925 13.9998 28.5883 13.9994C28.5254 13.993 28.4763 13.9399 28.4763 13.8753V4.12469ZM31.1197 9.83541V12.005H33.7756C34.3747 12.005 34.8604 11.5193 34.8604 10.9202C34.8604 10.3211 34.3747 9.83541 33.7756 9.83541H31.1197ZM33.3392 7.99003H31.1197V5.99501H33.3392C33.8901 5.99501 34.3367 6.44161 34.3367 6.99252C34.3367 7.54343 33.8901 7.99003 33.3392 7.99003Z" />
<path fill-rule="evenodd" clip-rule="evenodd" d="M25.6384 11.6402C25.626 11.6082 25.6013 11.5811 25.5691 11.5663C25.5369 11.5515 25.4998 11.5515 25.4676 11.5614C24.8935 11.7733 23.9418 11.9458 23.192 11.9458C21.5514 11.9458 20.7694 11.5047 20.7694 8.99876C20.7694 6.99548 21.0095 6.05175 23.192 6.05175C23.8107 6.05175 24.5593 6.14045 25.2893 6.35236C25.3487 6.36961 25.413 6.34251 25.4403 6.2883C25.6708 5.78303 26.0199 4.92268 26.2382 4.39097C26.2555 4.35648 26.2555 4.31705 26.2407 4.28255C26.2258 4.24806 26.1961 4.22095 26.159 4.20863C25.1989 3.90309 24.0532 3.72568 23.0213 3.72568C19.5841 3.72568 18.0524 5.33963 18.0524 8.9618C18.0524 12.6357 19.5841 14.2743 23.0213 14.2743C23.8824 14.2743 25.58 14.0944 26.399 13.7692C26.4634 13.7421 26.498 13.6681 26.4733 13.6041L25.6384 11.6402Z" />
<path fill-rule="evenodd" clip-rule="evenodd" d="M12.3471 3.72568C8.98676 3.72568 7.67834 5.19346 7.67834 8.96137C7.67834 12.7866 8.98676 14.2743 12.3471 14.2743C15.7343 14.2743 17.0549 12.7866 17.0549 8.96137C17.0549 5.19346 15.7343 3.72568 12.3471 3.72568ZM12.3471 12.0789C10.8161 12.0789 10.3392 11.6552 10.3392 8.99874C10.3392 6.17033 10.8601 5.91864 12.3471 5.91864C13.8634 5.91864 14.3941 6.17033 14.3941 8.99874C14.3941 11.6552 13.9074 12.0789 12.3471 12.0789Z" />
<path fill-rule="evenodd" clip-rule="evenodd" d="M0.122192 4.12469C0.122192 4.05582 0.178017 4 0.246881 4L7.30556 4C7.39372 4 7.45336 4.09081 7.41912 4.17289L6.54498 6.26799C6.52189 6.32333 6.46909 6.3485 6.41896 6.34352C6.41486 6.34393 6.41069 6.34414 6.40648 6.34414H2.76558V13.8753C2.76558 13.9442 2.70976 14 2.6409 14H0.246881C0.178017 14 0.122192 13.9442 0.122192 13.8753V4.12469Z" />
</svg>
