<svg width="35" height="38" viewBox="0 0 35 38" fill="none" xmlns="http://www.w3.org/2000/svg">
<path fill-rule="evenodd" clip-rule="evenodd" d="M18.4547 1.57736C18.4741 1.31019 18.3867 1.03598 18.19 0.82423L18.1884 0.825727C18.188 0.825314 18.1877 0.824904 18.1873 0.824491C18.1888 0.822898 18.1887 0.822798 18.1886 0.822698L18.1872 0.821136L18.1841 0.817918L18.1776 0.811118L18.163 0.796114C18.1524 0.785507 18.1404 0.773713 18.1267 0.760889C18.0993 0.73524 18.0656 0.705472 18.0252 0.672846C17.9443 0.607522 17.8369 0.531024 17.7004 0.453407C17.4253 0.29704 17.0418 0.141794 16.5353 0.0597434C15.5199 -0.104713 14.083 0.0350113 12.102 0.92143C10.3723 1.69536 9.33574 1.72035 8.80526 1.63443C8.53893 1.59129 8.38135 1.51757 8.30869 1.47628C8.2823 1.46127 8.26549 1.44962 8.25749 1.44374C7.97725 1.1734 7.56335 1.08929 7.19781 1.23287C6.81509 1.38319 6.5634 1.75246 6.5634 2.16364V7.9531C6.5634 8.20557 6.6589 8.44869 6.83072 8.63367L7.5634 7.9531C6.83072 8.63367 6.83143 8.63443 6.83214 8.6352L6.83361 8.63677L6.83663 8.63998L6.84311 8.64678L6.85777 8.66179C6.86832 8.67239 6.8804 8.68419 6.89407 8.69701C6.92142 8.72266 6.95511 8.75243 6.99552 8.78506C7.07641 8.85038 7.18385 8.92688 7.3204 9.00449C7.59551 9.16086 7.97891 9.31611 8.48549 9.39816C9.50083 9.56261 10.9378 9.42289 12.9188 8.53647C14.6485 7.76254 15.685 7.73755 16.2155 7.82347C16.308 7.83846 16.3874 7.85714 16.4547 7.87687V11.6284L6.24262 17.8508C5.94473 18.0323 5.76295 18.3559 5.76295 18.7047V24.5961H1C0.447715 24.5961 0 25.0438 0 25.5961V36.4593C0 37.0116 0.447715 37.4593 1 37.4593H13.9973C14.001 37.4594 14.0048 37.4594 14.0085 37.4594H20.9244C20.9281 37.4594 20.9318 37.4594 20.9356 37.4593H33.9344C34.4867 37.4593 34.9344 37.0116 34.9344 36.4593V25.5961C34.9344 25.0438 34.4867 24.5961 33.9344 24.5961H29.1715V18.7161C29.1715 18.3673 28.9897 18.0436 28.6918 17.8621L18.4547 11.6247V7.36682C18.4582 7.31839 18.4582 7.26973 18.4547 7.22125V1.57736ZM16.4547 2.08741C16.3874 2.06768 16.308 2.049 16.2155 2.03401C15.685 1.94809 14.6485 1.97308 12.9188 2.74701C10.9879 3.61099 9.57392 3.7656 8.5634 3.62059V7.36972C8.63124 7.38973 8.71151 7.4087 8.80526 7.42389C9.33574 7.50981 10.3723 7.48482 12.102 6.71089C14.0312 5.84766 15.4444 5.69257 16.4547 5.83693V2.08741ZM8.2947 1.48158C8.29469 1.48158 8.29469 1.48157 8.29469 1.48157L8.2946 1.48148C8.29463 1.48151 8.29466 1.48154 8.2947 1.48158ZM17.4577 13.3593L7.76295 19.2664V25.5961C7.76295 26.1483 7.31524 26.5961 6.76295 26.5961H2V35.4593H13.0085V25.5961C13.0085 25.0438 13.4562 24.5961 14.0085 24.5961H20.9244C21.4767 24.5961 21.9244 25.0438 21.9244 25.5961V35.4593H32.9344V26.5961H28.1715C27.6192 26.5961 27.1715 26.1483 27.1715 25.5961V19.2778L17.4577 13.3593ZM19.9244 35.4593V26.5961H15.0085V35.4593H19.9244Z" fill="#9DACCE"/>
</svg>
