<svg
  viewBox="0 0 161 55"
  fill="none"
  xmlns="http://www.w3.org/2000/svg"
>
  <path
    d="M0 8C0 3.58172 3.58172 0 8 0H47C51.4183 0 55 3.58172 55 8V47C55 51.4183 51.4183 55 47 55H8C3.58172 55 0 51.4183 0 47V8Z"
    class="path path_white"
  />
  <path
    d="M46.744 11.892C47.0813 12.26 47.342 12.7047 47.526 13.226C47.71 13.7473 47.802 14.2687 47.802 14.79C46.7593 14.79 45.9773 14.974 45.456 15.342C44.9653 15.71 44.72 16.308 44.72 17.136V38.756C44.72 39.6147 44.95 40.2127 45.41 40.55C45.9007 40.8873 46.698 41.056 47.802 41.056C47.802 41.608 47.71 42.1447 47.526 42.666C47.342 43.1873 47.0813 43.632 46.744 44H35.336C35.0293 43.632 34.784 43.1873 34.6 42.666C34.416 42.1447 34.324 41.608 34.324 41.056C35.3973 41.056 36.1947 40.8873 36.716 40.55C37.2373 40.182 37.498 39.584 37.498 38.756V19.712L29.678 39.446C29.2793 40.3967 28.7273 41.056 28.022 41.424C27.3167 41.7613 26.3967 41.93 25.262 41.93L16.154 19.712V38.756C16.154 39.584 16.4453 40.182 17.028 40.55C17.6413 40.8873 18.5613 41.056 19.788 41.056C19.788 41.608 19.696 42.1447 19.512 42.666C19.328 43.1873 19.0827 43.632 18.776 44H9.208C8.90133 43.632 8.656 43.1873 8.472 42.666C8.288 42.1447 8.196 41.608 8.196 41.056C9.33067 41.056 10.1587 40.8873 10.68 40.55C11.2013 40.182 11.462 39.584 11.462 38.756V17.136C11.462 16.308 11.186 15.71 10.634 15.342C10.082 14.974 9.26933 14.79 8.196 14.79C8.196 14.2687 8.288 13.7473 8.472 13.226C8.656 12.7047 8.91667 12.26 9.254 11.892H16.476C17.9173 11.892 19.0673 12.1067 19.926 12.536C20.7847 12.9347 21.4747 13.7473 21.996 14.974L26.872 26.98L28.712 32.684L30.46 26.98L36.256 11.892H46.744Z"
    class="path_dark"
  />
<path
  d="M104.544 37.98L105.644 39.894L106.787 37.848L107.36 36.726H110.374L107.514 41.786L110.462 46.89L106.787 47.154L106.259 45.746L105.16 43.766L103.928 45.9L103.422 47H100.385L103.245 41.852L100.364 36.792L104.082 36.638L104.544 37.98Z"
/>
<path d="M93.9023 36.484C95.1197 36.484 96.0657 36.748 96.7403 37.276C97.415 37.7893 97.7523 38.53 97.7523 39.498C97.7523 39.8353 97.7377 40.224 97.7083 40.664C97.679 41.104 97.657 41.522 97.6423 41.918C97.569 42.974 97.5323 43.7 97.5323 44.096C97.5323 44.3013 97.5617 44.448 97.6203 44.536C97.6937 44.624 97.811 44.668 97.9723 44.668C98.1043 44.668 98.2657 44.6387 98.4563 44.58L98.6983 44.778L98.3903 46.604C97.9063 46.9413 97.3123 47.1393 96.6083 47.198C96.1683 47.154 95.7943 47 95.4863 46.736C95.1783 46.472 94.9583 46.098 94.8263 45.614H94.6723C93.939 46.3913 93.191 46.9267 92.4283 47.22C91.343 47.2053 90.485 46.912 89.8543 46.34C89.2383 45.768 88.9303 44.9907 88.9303 44.008C88.9303 42.4973 89.7223 41.61 91.3063 41.346L94.5623 40.796V40.158C94.5623 39.7033 94.4597 39.3807 94.2543 39.19C94.0637 38.9847 93.7483 38.882 93.3083 38.882C92.8683 38.882 92.3917 38.9773 91.8783 39.168C91.3797 39.3587 90.8003 39.6593 90.1403 40.07L89.9203 39.916L89.5243 37.65C90.1843 37.2833 90.8957 36.9973 91.6583 36.792C92.421 36.5867 93.169 36.484 93.9023 36.484ZM92.6703 42.798C92.4503 42.842 92.2817 42.93 92.1643 43.062C92.0617 43.194 92.0103 43.392 92.0103 43.656C92.0103 44.008 92.0983 44.2793 92.2743 44.47C92.465 44.6607 92.7217 44.756 93.0443 44.756C93.5137 44.756 94.0123 44.5067 94.5403 44.008L94.5623 42.424L92.6703 42.798Z" fill="white"/>
<path d="M86.698 47H83.552L83.376 42.688L82.98 38.024H82.76L79.944 45.57H77.216L74.752 38.024H74.51L74.07 42.358L73.784 47H70.814L72.222 32.81H76.336L76.842 34.878L78.668 40.95H78.888L80.868 34.944L81.44 32.81H85.488L86.698 47Z" fill="white"/>
<path d="M154.602 12.486L155.834 17.766H156.01L157.506 12.684L157.88 10.704H160.916L157.638 21H153.854L151.082 10.77L154.316 10.638L154.602 12.486Z" fill="#F45715"/>
<path d="M144.881 10.484C146.436 10.484 147.617 10.924 148.423 11.804C149.245 12.684 149.655 13.9673 149.655 15.654C149.655 17.4727 149.215 18.8587 148.335 19.812C147.47 20.7653 146.209 21.242 144.551 21.242C142.997 21.242 141.809 20.802 140.987 19.922C140.181 19.042 139.777 17.766 139.777 16.094C139.777 14.2753 140.21 12.8893 141.075 11.936C141.955 10.968 143.224 10.484 144.881 10.484ZM144.639 12.838C144.053 12.838 143.635 13.036 143.385 13.432C143.151 13.8133 143.033 14.488 143.033 15.456C143.033 16.3507 143.085 17.0547 143.187 17.568C143.305 18.0667 143.488 18.426 143.737 18.646C144.001 18.8513 144.353 18.954 144.793 18.954C145.365 18.954 145.769 18.7633 146.003 18.382C146.253 17.986 146.377 17.2967 146.377 16.314C146.377 15.0087 146.245 14.1067 145.981 13.608C145.732 13.0947 145.285 12.838 144.639 12.838Z" fill="#F45715"/>
<path d="M133.89 14.862C133.919 13.85 133.509 13.344 132.658 13.344C132.145 13.344 131.587 13.564 130.986 14.004V16.446L131.14 21H127.664L127.818 16.798L127.686 10.924L131.008 10.66V12.178H131.14C131.932 11.43 132.812 10.8947 133.78 10.572C134.88 10.572 135.716 10.8287 136.288 11.342C136.875 11.8407 137.161 12.5593 137.146 13.498L137.058 16.446L137.19 21H133.714L133.89 14.862Z" fill="#F45715"/>
<path d="M120.277 10.484C121.495 10.484 122.441 10.748 123.115 11.276C123.79 11.7893 124.127 12.53 124.127 13.498C124.127 13.8353 124.113 14.224 124.083 14.664C124.054 15.104 124.032 15.522 124.017 15.918C123.944 16.974 123.907 17.7 123.907 18.096C123.907 18.3013 123.937 18.448 123.995 18.536C124.069 18.624 124.186 18.668 124.347 18.668C124.479 18.668 124.641 18.6387 124.831 18.58L125.073 18.778L124.765 20.604C124.281 20.9413 123.687 21.1393 122.983 21.198C122.543 21.154 122.169 21 121.861 20.736C121.553 20.472 121.333 20.098 121.201 19.614H121.047C120.314 20.3913 119.566 20.9267 118.803 21.22C117.718 21.2053 116.86 20.912 116.229 20.34C115.613 19.768 115.305 18.9907 115.305 18.008C115.305 16.4973 116.097 15.61 117.681 15.346L120.937 14.796V14.158C120.937 13.7033 120.835 13.3807 120.629 13.19C120.439 12.9847 120.123 12.882 119.683 12.882C119.243 12.882 118.767 12.9773 118.253 13.168C117.755 13.3587 117.175 13.6593 116.515 14.07L116.295 13.916L115.899 11.65C116.559 11.2833 117.271 10.9973 118.033 10.792C118.796 10.5867 119.544 10.484 120.277 10.484ZM119.045 16.798C118.825 16.842 118.657 16.93 118.539 17.062C118.437 17.194 118.385 17.392 118.385 17.656C118.385 18.008 118.473 18.2793 118.649 18.47C118.84 18.6607 119.097 18.756 119.419 18.756C119.889 18.756 120.387 18.5067 120.915 18.008L120.937 16.424L119.045 16.798Z" fill="#F45715"/>
<path d="M109.214 10.572C110.49 10.572 111.48 11.012 112.184 11.892C112.888 12.7573 113.24 13.9893 113.24 15.588C113.24 17.392 112.785 18.7853 111.876 19.768C110.981 20.7507 109.705 21.242 108.048 21.242C107.696 21.242 107.285 21.2053 106.816 21.132L106.882 25.07H103.428L103.582 16.798L103.428 10.924L106.75 10.66V12.178H106.904C107.285 11.782 107.652 11.4593 108.004 11.21C108.37 10.9607 108.774 10.748 109.214 10.572ZM107.982 19.02C109.316 19.02 109.984 18.0447 109.984 16.094C109.969 14.2607 109.382 13.344 108.224 13.344C107.74 13.344 107.241 13.5567 106.728 13.982V16.446L106.772 18.8C107.241 18.9467 107.644 19.02 107.982 19.02Z" fill="#F45715"/>
<path d="M100.237 16.424L94.4733 16.468C94.576 17.2307 94.84 17.7953 95.2653 18.162C95.6907 18.5287 96.292 18.712 97.0693 18.712C97.8467 18.712 98.8733 18.4847 100.149 18.03L100.413 18.206L99.8853 20.692C98.712 21.0587 97.6487 21.242 96.6953 21.242C95.0087 21.242 93.6813 20.7653 92.7133 19.812C91.76 18.8587 91.2833 17.546 91.2833 15.874C91.2833 14.202 91.7453 12.8893 92.6693 11.936C93.5933 10.968 94.8473 10.484 96.4313 10.484C97.7953 10.484 98.8513 10.8507 99.5993 11.584C100.362 12.3173 100.743 13.3367 100.743 14.642C100.743 15.0673 100.699 15.5147 100.611 15.984L100.237 16.424ZM97.7293 14.268C97.7293 13.256 97.2893 12.75 96.4093 12.75C95.9107 12.75 95.5 12.9187 95.1773 13.256C94.8547 13.5787 94.6347 14.048 94.5173 14.664L97.6853 14.576L97.7293 14.268Z" fill="#F45715"/>
<path d="M87.9789 18.448C88.4189 18.448 88.8882 18.338 89.3868 18.118L89.6288 18.382L89.2988 20.384C88.5655 20.7947 87.8028 21.0513 87.0108 21.154C85.9402 21.0953 85.1262 20.8167 84.5688 20.318C84.0115 19.8047 83.7328 19.108 83.7328 18.228L83.8428 16.226L83.8208 12.86H82.4568L82.3468 12.684L82.5008 10.792H83.7988V9.032L86.9888 8.086L87.2309 8.306L87.1428 10.792H89.5629L89.6729 10.99L89.5188 12.86H87.0768L86.9448 17.304C86.9448 17.7293 87.0182 18.03 87.1648 18.206C87.3262 18.3673 87.5975 18.448 87.9789 18.448Z" fill="#F45715"/>
<path d="M76.446 6.59C77.7073 6.59 78.9833 6.83933 80.274 7.338L79.702 10.33L79.174 10.528C78.6167 10.1613 78.0593 9.87533 77.502 9.67C76.9447 9.46467 76.4607 9.362 76.05 9.362C75.566 9.362 75.1773 9.48667 74.884 9.736C74.6053 9.97067 74.466 10.2493 74.466 10.572C74.466 10.9387 74.642 11.254 74.994 11.518C75.3607 11.7673 75.9327 12.068 76.71 12.42C77.5313 12.8013 78.1913 13.1533 78.69 13.476C79.2033 13.784 79.6433 14.202 80.01 14.73C80.3913 15.258 80.582 15.9033 80.582 16.666C80.582 17.5167 80.3473 18.2867 79.878 18.976C79.4233 19.6653 78.7707 20.2153 77.92 20.626C77.0693 21.022 76.0867 21.22 74.972 21.22C73.4907 21.22 72.024 20.9267 70.572 20.34L71.078 17.15L71.452 16.93C72.068 17.4433 72.7353 17.8467 73.454 18.14C74.1873 18.4187 74.818 18.558 75.346 18.558C75.9033 18.558 76.3213 18.4333 76.6 18.184C76.8933 17.9347 77.04 17.6413 77.04 17.304C77.04 16.908 76.8567 16.578 76.49 16.314C76.1233 16.05 75.5513 15.742 74.774 15.39C73.982 15.0233 73.3293 14.686 72.816 14.378C72.3173 14.0553 71.8847 13.63 71.518 13.102C71.1513 12.574 70.968 11.9287 70.968 11.166C70.968 10.3007 71.1953 9.52333 71.65 8.834C72.1193 8.13 72.7647 7.58 73.586 7.184C74.422 6.788 75.3753 6.59 76.446 6.59Z" fill="#F45715"/>
</svg>
