<svg
  viewBox="0 0 25 17"
  xmlns="http://www.w3.org/2000/svg"
>
  <path
    fill-rule="evenodd" 
    clip-rule="evenodd"
    d="M17.8708 0.395465C17.2279 0.275659 16.7712 0.26727 16.4469 0.305732C16.2838 0.325076 16.1524 0.356484 16.0473 0.39256C15.9948 0.410592 15.9491 0.429694 15.9096 0.448828C15.8899 0.458386 15.8718 0.467916 15.8552 0.477274C15.8469 0.481951 15.839 0.48658 15.8315 0.49114L15.8205 0.497923L15.8153 0.501269L15.8127 0.50293L15.8114 0.503757C15.8108 0.504169 15.8101 0.504582 16.2199 1.13278L15.8101 0.504582C15.4632 0.730862 15.3654 1.19555 15.5917 1.5425C15.8002 1.86225 16.2113 1.97039 16.546 1.80824C16.5596 1.80501 16.5848 1.79988 16.6235 1.7953C16.757 1.77947 17.0417 1.7711 17.5427 1.86035C17.5589 1.87365 17.5875 1.8995 17.6284 1.94551C17.7332 2.06377 17.8608 2.25026 18.0044 2.50755C18.2897 3.01892 18.5808 3.70438 18.8461 4.41185C19.0658 4.99795 19.2612 5.58159 19.4147 6.06374C19.2656 6.0508 19.1148 6.0442 18.9624 6.0442C16.5312 6.0442 14.4926 7.72577 13.9465 9.9893L13.9031 9.97618C13.3849 9.82041 12.6621 9.63893 12.0437 9.63893C11.4453 9.63893 10.7494 9.80878 10.2355 9.96089C9.60933 7.81654 7.62858 6.25001 5.28194 6.25001C5.1655 6.25001 5.04996 6.25386 4.93543 6.26146C4.89812 6.26393 4.86091 6.26681 4.82382 6.27007C4.98514 5.75383 5.20523 5.0849 5.45719 4.41274C5.72233 3.70546 6.01335 3.02019 6.29864 2.50897C6.44219 2.25176 6.56968 2.06534 6.67453 1.94712C6.71528 1.90117 6.7439 1.87534 6.76013 1.86204C7.26096 1.77283 7.54552 1.7812 7.67892 1.79702C7.71758 1.8016 7.74277 1.80672 7.75636 1.80995C8.0911 1.97209 8.50214 1.86394 8.71068 1.54419C8.93696 1.19725 8.83915 0.73256 8.4922 0.506279L8.09378 1.11716C8.49219 0.506272 8.49156 0.505863 8.49093 0.505454L8.48966 0.504627L8.48708 0.502967L8.48181 0.49962L8.47084 0.492838C8.46333 0.488278 8.45544 0.48365 8.44716 0.478973C8.43058 0.469615 8.41248 0.460086 8.39275 0.450529C8.35326 0.431396 8.30758 0.412296 8.25506 0.394266C8.14998 0.358195 8.01865 0.326792 7.85556 0.307452C7.53128 0.268997 7.0747 0.277387 6.43192 0.397163C6.03453 0.471214 5.74108 0.738976 5.55231 0.951823C5.34607 1.18436 5.15788 1.47503 4.98881 1.77799C4.64887 2.38712 4.32692 3.15453 4.05264 3.88622C3.7762 4.62366 3.53859 5.35091 3.37054 5.89186C3.28634 6.16289 3.21921 6.38844 3.17299 6.54675C3.15143 6.62058 3.1344 6.67985 3.12228 6.72235C1.35126 7.53969 0.122192 9.33119 0.122192 11.4098C0.122192 14.2594 2.43229 16.5695 5.28194 16.5695C8.11258 16.5695 10.4108 14.2901 10.4414 11.4667C10.4974 11.4489 10.5558 11.4308 10.616 11.4127C11.1142 11.263 11.6587 11.1389 12.0437 11.1389C12.4286 11.1389 12.9732 11.263 13.4713 11.4127C13.594 11.4496 13.709 11.4865 13.8123 11.521C13.9761 14.223 16.2193 16.3637 18.9624 16.3637C21.8121 16.3637 24.1222 14.0536 24.1222 11.2039C24.1222 9.12521 22.8929 7.33357 21.1217 6.51634C21.0759 6.36006 21.0119 6.1458 20.9329 5.89151C20.7648 5.35041 20.5271 4.62297 20.2506 3.88534C19.9763 3.15346 19.6542 2.38584 19.3142 1.77657C19.1451 1.47353 18.9569 1.18279 18.7506 0.95021C18.5618 0.737316 18.2683 0.469524 17.8708 0.395465ZM18.9624 7.5442C16.9412 7.5442 15.3027 9.18272 15.3027 11.2039C15.3027 13.2252 16.9412 14.8637 18.9624 14.8637C20.9837 14.8637 22.6222 13.2252 22.6222 11.2039C22.6222 9.18272 20.9837 7.5442 18.9624 7.5442ZM5.28194 7.75001C3.26072 7.75001 1.62219 9.38853 1.62219 11.4098C1.62219 13.431 3.26072 15.0695 5.28194 15.0695C7.30317 15.0695 8.9417 13.431 8.9417 11.4098C8.9417 9.38853 7.30317 7.75001 5.28194 7.75001Z"
  />
</svg>
