<svg
  viewBox="0 0 21 21"
  xmlns="http://www.w3.org/2000/svg"
>
  <path
    fill-rule="evenodd"
    clip-rule="evenodd"
    d="M15.5 8.5C15.5 12.366 12.366 15.5 8.5 15.5C4.63401 15.5 1.5 12.366 1.5 8.5C1.5 4.63401 4.63401 1.5 8.5 1.5C12.366 1.5 15.5 4.63401 15.5 8.5ZM13.9568 15.0174C12.4803 16.2549 10.5772 17 8.5 17C3.80558 17 0 13.1944 0 8.5C0 3.80558 3.80558 0 8.5 0C13.1944 0 17 3.80558 17 8.5C17 10.5772 16.2549 12.4803 15.0174 13.9568L20.5303 19.4697C20.8232 19.7626 20.8232 20.2374 20.5303 20.5303C20.2374 20.8232 19.7626 20.8232 19.4697 20.5303L13.9568 15.0174Z"
  />
</svg>
